<?xml version="1.0" standalone="no"?>
<!DOCTYPE svg PUBLIC "-//W3C//DTD SVG 20010904//EN"
 "http://www.w3.org/TR/2001/REC-SVG-20010904/DTD/svg10.dtd">
<svg version="1.0" xmlns="http://www.w3.org/2000/svg"
 width="24.000000pt" height="24.000000pt" viewBox="0 0 24.000000 24.000000"
 preserveAspectRatio="xMidYMid meet">

<g transform="translate(0.000000,24.000000) scale(0.100000,-0.100000)"
fill="#000000" stroke="none">
<path d="M12 228 c-16 -16 -16 -200 0 -216 16 -16 130 -16 146 0 14 14 16 48
3 48 -5 0 -11 -9 -14 -20 -4 -17 -14 -20 -66 -20 l-61 0 0 100 0 100 61 0 c52
0 62 -3 66 -20 3 -11 9 -20 14 -20 13 0 11 34 -3 48 -16 16 -130 16 -146 0z"/>
<path d="M203 148 c6 -16 -1 -18 -53 -18 -33 0 -60 -4 -60 -10 0 -6 27 -10 60
-10 49 0 58 -3 54 -15 -9 -23 14 -18 27 6 9 18 7 25 -11 43 -19 17 -22 18 -17
4z"/>
</g>
</svg>
